{
  "accessors": [
    {
      "bufferView": 2,
      "componentType": 5126,
      "count": 204,
      "max": [
        0.5,
        0.5,
        0.34784817695617676
      ],
      "min": [
        -0.5,
        -0.5,
        -0.34784817695617676
      ],
      "type": "VEC3"
    },
    {
      "bufferView": 2,
      "byteOffset": 2448,
      "componentType": 5126,
      "count": 204,
      "max": [
        1.0,
        1.0,
        1.0
      ],
      "min": [
        -1.0,
        -0.9999991655349731,
        -1.0
      ],
      "type": "VEC3"
    },
    {
      "bufferView": 1,
      "componentType": 5126,
      "count": 204,
      "max": [
        0.9971511363983154,
        0.9998549222946167
      ],
      "min": [
        0.00023359060287475586,
        0.00014507770538330078
      ],
      "type": "VEC2"
    },
    {
      "bufferView": 1,
      "byteOffset": 1632,
      "componentType": 5126,
      "count": 204,
      "max": [
        0.9971511363983154,
        0.9998549222946167
      ],
      "min": [
        0.00023359060287475586,
        0.00014507770538330078
      ],
      "type": "VEC2"
    },
    {
      "bufferView": 1,
      "byteOffset": 3264,
      "componentType": 5126,
      "count": 204,
      "max": [
        0.9971511363983154,
        0.9998549222946167
      ],
      "min": [
        0.00023359060287475586,
        0.00014507770538330078
      ],
      "type": "VEC2"
    },
    {
      "bufferView": 1,
      "byteOffset": 4896,
      "componentType": 5126,
      "count": 204,
      "max": [
        0.9971511363983154,
        0.9998549222946167
      ],
      "min": [
        0.00023359060287475586,
        0.00014507770538330078
      ],
      "type": "VEC2"
    },
    {
      "bufferView": 1,
      "byteOffset": 6528,
      "componentType": 5126,
      "count": 204,
      "max": [
        0.9971511363983154,
        0.9998549222946167
      ],
      "min": [
        0.00023359060287475586,
        0.00014507770538330078
      ],
      "type": "VEC2"
    },
    {
      "bufferView": 1,
      "byteOffset": 8160,
      "componentType": 5126,
      "count": 204,
      "max": [
        0.9971511363983154,
        0.9998549222946167
      ],
      "min": [
        0.00023359060287475586,
        0.00014507770538330078
      ],
      "type": "VEC2"
    },
    {
      "bufferView": 1,
      "byteOffset": 9792,
      "componentType": 5126,
      "count": 204,
      "max": [
        0.9971511363983154,
        0.9998549222946167
      ],
      "min": [
        0.00023359060287475586,
        0.00014507770538330078
      ],
      "type": "VEC2"
    },
    {
      "bufferView": 1,
      "byteOffset": 11424,
      "componentType": 5126,
      "count": 204,
      "max": [
        0.9971511363983154,
        0.9998549222946167
      ],
      "min": [
        0.00023359060287475586,
        0.00014507770538330078
      ],
      "type": "VEC2"
    },
    {
      "bufferView": 1,
      "byteOffset": 13056,
      "componentType": 5126,
      "count": 204,
      "max": [
        0.9971511363983154,
        0.9998549222946167
      ],
      "min": [
        0.00023359060287475586,
        0.00014507770538330078
      ],
      "type": "VEC2"
    },
    {
      "bufferView": 0,
      "componentType": 5125,
      "count": 408,
      "type": "SCALAR"
    }
  ],
  "asset": {
    "extras": {
      "author": "Diyah Yustiana (https://sketchfab.com/diyahyustiana)",
      "license": "CC-BY-4.0 (http://creativecommons.org/licenses/by/4.0/)",
      "source": "https://sketchfab.com/3d-models/harddisk-1ed2e3560e854fe2a2c028aa85ba8d6e",
      "title": "Harddisk"
    },
    "generator": "Sketchfab-12.68.0",
    "version": "2.0"
  },
  "bufferViews": [
    {
      "buffer": 0,
      "byteLength": 1632,
      "name": "floatBufferViews",
      "target": 34963
    },
    {
      "buffer": 0,
      "byteLength": 14688,
      "byteOffset": 1632,
      "byteStride": 8,
      "name": "floatBufferViews",
      "target": 34962
    },
    {
      "buffer": 0,
      "byteLength": 4896,
      "byteOffset": 16320,
      "byteStride": 12,
      "name": "floatBufferViews",
      "target": 34962
    }
  ],
  "buffers": [
    {
      "byteLength": 21216,
      "uri": "scene.bin"
    }
  ],
  "images": [
    {
      "uri": "textures/Material_139_baseColor.png"
    }
  ],
  "materials": [
    {
      "doubleSided": true,
      "name": "Material_139",
      "pbrMetallicRoughness": {
        "baseColorTexture": {
          "index": 0
        },
        "metallicFactor": 0.0,
        "roughnessFactor": 0.9406729813520273
      }
    }
  ],
  "meshes": [
    {
      "name": "root_Material_139_0",
      "primitives": [
        {
          "attributes": {
            "NORMAL": 1,
            "POSITION": 0,
            "TEXCOORD_0": 2,
            "TEXCOORD_1": 3,
            "TEXCOORD_2": 4,
            "TEXCOORD_3": 5,
            "TEXCOORD_4": 6,
            "TEXCOORD_5": 7,
            "TEXCOORD_6": 8,
            "TEXCOORD_7": 9,
            "TEXCOORD_8": 10
          },
          "indices": 11,
          "material": 0,
          "mode": 4
        }
      ]
    }
  ],
  "nodes": [
    {
      "children": [
        1
      ],
      "matrix": [
        1.0,
        0.0,
        0.0,
        0.0,
        0.0,
        2.220446049250313e-16,
        -1.0,
        0.0,
        0.0,
        1.0,
        2.220446049250313e-16,
        0.0,
        0.0,
        0.0,
        0.0,
        1.0
      ],
      "name": "Sketchfab_model"
    },
    {
      "children": [
        2
      ],
      "matrix": [
        1.0,
        0.0,
        0.0,
        0.0,
        0.0,
        0.0,
        1.0,
        0.0,
        0.0,
        -1.0,
        0.0,
        0.0,
        0.0,
        0.0,
        0.0,
        1.0
      ],
      "name": "3102086391fc4954b9e500815214df53.fbx"
    },
    {
      "children": [
        3
      ],
      "name": "RootNode"
    },
    {
      "children": [
        4
      ],
      "name": "root"
    },
    {
      "children": [
        5
      ],
      "name": "root"
    },
    {
      "children": [
        6
      ],
      "matrix": [
        -0.24283847212791443,
        2.9739135760128415e-17,
        0.0,
        0.0,
        4.241753054003852e-17,
        0.34636542201042175,
        4.241753054003852e-17,
        0.0,
        6.446896168519282e-34,
        5.264290220664327e-18,
        -0.0429861918091774,
        0.0,
        -0.09057314693927765,
        0.11120199412107468,
        0.19746974110603333,
        1.0
      ],
      "name": "Object_5"
    },
    {
      "mesh": 0,
      "name": "root_Material_139_0"
    }
  ],
  "samplers": [
    {
      "magFilter": 9729,
      "minFilter": 9987,
      "wrapS": 10497,
      "wrapT": 10497
    }
  ],
  "scene": 0,
  "scenes": [
    {
      "name": "Sketchfab_Scene",
      "nodes": [
        0
      ]
    }
  ],
  "textures": [
    {
      "sampler": 0,
      "source": 0
    }
  ]
}
